<mxfile host="app.diagrams.net" modified="2023-10-23T16:59:22.652Z" agent="Mozilla/5.0 (Windows NT 10.0; Win64; x64) AppleWebKit/537.36 (KHTML, like Gecko) Chrome/118.0.0.0 Safari/537.36" version="22.0.6" etag="zGGsh20eIfF-oDaIcgDG" type="github">
  <diagram name="Page-1" id="Uj_B-PYYnB_Uk6I8csKL">
    <mxGraphModel>
      <root>
        <mxCell id="0" />
        <mxCell id="1" parent="0" />
      </root>
    </mxGraphModel>
  </diagram>
</mxfile>
